HIERARCHY
ROOT Hips
{
	OFFSET 0.000000 83.214638 0.000000
	CHANNELS 6 Xposition Yposition Zposition Xrotation Yrotation Zrotation
	JOINT Pelvis
	{
		OFFSET 0.000000 0.000000 0.000000
		CHANNELS 3 Xrotation Yrotation Zrotation
		JOINT LeftUpLeg
		{
			OFFSET 8.479700 -4.795502 -0.379100
			CHANNELS 3 Xrotation Yrotation Zrotation
			JOINT LeftLeg
			{
				OFFSET 0.024144 -32.555107 0.112900
				CHANNELS 3 Xrotation Yrotation Zrotation
				JOINT LeftFoot
				{
					OFFSET -0.024144 -32.638630 -3.012600
					CHANNELS 3 Xrotation Yrotation Zrotation
					JOINT LeftToeBase
					{
						OFFSET 0.970200 -13.225400 11.864200
						CHANNELS 3 Xrotation Yrotation Zrotation
						End Site
						{
							OFFSET 0.000000 12.319262 0.000000
						}
					}
					JOINT LFootTongue
					{
						OFFSET 1.142400 -1.059800 6.665200
						CHANNELS 3 Xrotation Yrotation Zrotation
						End Site
						{
							OFFSET 0.000000 12.319262 0.000000
						}
					}
				}
				JOINT LeftPantLeg
				{
					OFFSET 0.918482 -16.533964 -2.284700
					CHANNELS 3 Xrotation Yrotation Zrotation
					End Site
					{
						OFFSET 0.350399 24.744368 0.000000
					}
				}
			}
		}
		JOINT RightUpLeg
		{
			OFFSET -8.479700 -4.795502 -0.379100
			CHANNELS 3 Xrotation Yrotation Zrotation
			JOINT RightLeg
			{
				OFFSET -0.023144 -32.555092 0.112900
				CHANNELS 3 Xrotation Yrotation Zrotation
				JOINT RightFoot
				{
					OFFSET 0.023144 -32.638641 -3.012700
					CHANNELS 3 Xrotation Yrotation Zrotation
					JOINT RightToeBase
					{
						OFFSET -0.970200 -13.225400 11.864200
						CHANNELS 3 Xrotation Yrotation Zrotation
						End Site
						{
							OFFSET 0.000000 12.319244 0.000000
						}
					}
					JOINT RFootTongue
					{
						OFFSET -1.142200 -1.059800 6.665200
						CHANNELS 3 Xrotation Yrotation Zrotation
						End Site
						{
							OFFSET 0.000000 12.319243 0.000000
						}
					}
				}
				JOINT RightPantLeg
				{
					OFFSET -0.919482 -16.533978 -2.284800
					CHANNELS 3 Xrotation Yrotation Zrotation
					End Site
					{
						OFFSET -0.350400 24.744419 0.000000
					}
				}
			}
		}
	}
	JOINT Spine
	{
		OFFSET 0.000000 7.722000 1.166200
		CHANNELS 3 Xrotation Yrotation Zrotation
		JOINT Spine1
		{
			OFFSET 0.000000 12.024101 0.248800
			CHANNELS 3 Xrotation Yrotation Zrotation
			JOINT Spine2
			{
				OFFSET 0.000000 11.502998 -0.491200
				CHANNELS 3 Xrotation Yrotation Zrotation
				JOINT Neck
				{
					OFFSET 0.000000 18.430702 -3.123100
					CHANNELS 3 Xrotation Yrotation Zrotation
					JOINT Head
					{
						OFFSET 0.000000 9.051102 1.034000
						CHANNELS 3 Xrotation Yrotation Zrotation
						JOINT HairB
						{
							OFFSET 0.208400 24.786102 24.822300
							CHANNELS 3 Xrotation Yrotation Zrotation
							End Site
							{
								OFFSET 0.000000 32.263779 0.000000
							}
						}
						JOINT HairA
						{
							OFFSET -7.081100 24.428299 23.196600
							CHANNELS 3 Xrotation Yrotation Zrotation
							End Site
							{
								OFFSET 0.000000 32.263779 0.000000
							}
						}
						JOINT Hat
						{
							OFFSET 16.728800 15.048294 -15.439601
							CHANNELS 3 Xrotation Yrotation Zrotation
							End Site
							{
								OFFSET 0.000000 32.263779 0.000000
							}
						}
					}
				}
				JOINT LeftShoulder
				{
					OFFSET 6.197800 13.665199 -4.064700
					CHANNELS 3 Xrotation Yrotation Zrotation
					JOINT LeftArm
					{
						OFFSET 7.778100 -0.187103 -1.709300
						CHANNELS 3 Xrotation Yrotation Zrotation
						JOINT LeftForeArm
						{
							OFFSET 22.049376 0.000000 0.000000
							CHANNELS 3 Xrotation Yrotation Zrotation
							JOINT LeftHand
							{
								OFFSET 23.009392 0.000000 0.000000
								CHANNELS 3 Xrotation Yrotation Zrotation
								JOINT LeftHandThumb1
								{
									OFFSET 3.507191 -2.063065 3.133727
									CHANNELS 3 Xrotation Yrotation Zrotation
									JOINT LeftHandThumb2
									{
										OFFSET 3.101337 -1.790558 1.790558
										CHANNELS 3 Xrotation Yrotation Zrotation
										JOINT LeftHandThumb3
										{
											OFFSET 3.058640 -1.765907 1.765906
											CHANNELS 3 Xrotation Yrotation Zrotation
											End Site
											{
												OFFSET -0.415260 3.926476 -0.049563
											}
										}
									}
								}
								JOINT LeftHandIndex1
								{
									OFFSET 11.334419 -0.901459 3.706815
									CHANNELS 3 Xrotation Yrotation Zrotation
									JOINT LeftHandIndex2
									{
										OFFSET 3.283112 0.000000 0.000000
										CHANNELS 3 Xrotation Yrotation Zrotation
										JOINT LeftHandIndex3
										{
											OFFSET 3.323853 0.000000 0.000000
											CHANNELS 3 Xrotation Yrotation Zrotation
											End Site
											{
												OFFSET -1.135597 3.097809 0.402452
											}
										}
									}
								}
								JOINT LeftHandMiddle1
								{
									OFFSET 11.335861 0.000000 0.000000
									CHANNELS 3 Xrotation Yrotation Zrotation
									JOINT LeftHandMiddle2
									{
										OFFSET 3.410492 0.000000 0.000000
										CHANNELS 3 Xrotation Yrotation Zrotation
										JOINT LeftHandMiddle3
										{
											OFFSET 3.312172 0.000000 0.000000
											CHANNELS 3 Xrotation Yrotation Zrotation
											End Site
											{
												OFFSET -1.150200 3.080154 0.400270
											}
										}
									}
								}
								JOINT LeftHandRing1
								{
									OFFSET 11.514786 -0.013176 -3.003090
									CHANNELS 3 Xrotation Yrotation Zrotation
									JOINT LeftHandRing2
									{
										OFFSET 3.053307 0.000000 0.000000
										CHANNELS 3 Xrotation Yrotation Zrotation
										JOINT LeftHandRing3
										{
											OFFSET 3.295807 0.000000 0.000000
											CHANNELS 3 Xrotation Yrotation Zrotation
											End Site
											{
												OFFSET -1.281006 3.013344 0.375733
											}
										}
									}
								}
								JOINT LeftHandPinky1
								{
									OFFSET 10.518692 -0.960396 -5.730441
									CHANNELS 3 Xrotation Yrotation Zrotation
									JOINT LeftHandPinky2
									{
										OFFSET 2.861649 0.000000 0.000000
										CHANNELS 3 Xrotation Yrotation Zrotation
										JOINT LeftHandPinky3
										{
											OFFSET 2.863380 0.000000 0.000000
											CHANNELS 3 Xrotation Yrotation Zrotation
											End Site
											{
												OFFSET -0.843597 2.711159 0.369971
											}
										}
									}
								}
							}
							JOINT LSleeve
							{
								OFFSET 6.676277 -0.344902 -1.011730
								CHANNELS 3 Xrotation Yrotation Zrotation
								End Site
								{
									OFFSET 0.000000 14.885353 0.000000
								}
							}
						}
					}
				}
				JOINT RightShoulder
				{
					OFFSET -6.197800 13.665199 -4.064700
					CHANNELS 3 Xrotation Yrotation Zrotation
					JOINT RightArm
					{
						OFFSET -7.778100 -0.187103 -1.709300
						CHANNELS 3 Xrotation Yrotation Zrotation
						JOINT RightForeArm
						{
							OFFSET -22.049376 0.000000 0.000000
							CHANNELS 3 Xrotation Yrotation Zrotation
							JOINT RightHand
							{
								OFFSET -23.009392 0.000000 0.000000
								CHANNELS 3 Xrotation Yrotation Zrotation
								JOINT RightHandThumb1
								{
									OFFSET -3.507191 -2.063065 3.133727
									CHANNELS 3 Xrotation Yrotation Zrotation
									JOINT RightHandThumb2
									{
										OFFSET -3.101337 -1.790558 1.790558
										CHANNELS 3 Xrotation Yrotation Zrotation
										JOINT RightHandThumb3
										{
											OFFSET -3.058640 -1.765907 1.765906
											CHANNELS 3 Xrotation Yrotation Zrotation
											End Site
											{
												OFFSET 0.415260 3.926476 -0.049563
											}
										}
									}
								}
								JOINT RightHandIndex1
								{
									OFFSET -11.334419 -0.901459 3.706815
									CHANNELS 3 Xrotation Yrotation Zrotation
									JOINT RightHandIndex2
									{
										OFFSET -3.283112 0.000000 0.000000
										CHANNELS 3 Xrotation Yrotation Zrotation
										JOINT RightHandIndex3
										{
											OFFSET -3.323853 0.000000 0.000000
											CHANNELS 3 Xrotation Yrotation Zrotation
											End Site
											{
												OFFSET 1.135597 3.097809 0.402452
											}
										}
									}
								}
								JOINT RightHandMiddle1
								{
									OFFSET -11.335861 0.000000 0.000000
									CHANNELS 3 Xrotation Yrotation Zrotation
									JOINT RightHandMiddle2
									{
										OFFSET -3.410492 0.000000 0.000000
										CHANNELS 3 Xrotation Yrotation Zrotation
										JOINT RightHandMiddle3
										{
											OFFSET -3.312172 0.000000 0.000000
											CHANNELS 3 Xrotation Yrotation Zrotation
											End Site
											{
												OFFSET 1.150200 3.080154 0.400270
											}
										}
									}
								}
								JOINT RightHandRing1
								{
									OFFSET -11.514786 -0.013176 -3.003090
									CHANNELS 3 Xrotation Yrotation Zrotation
									JOINT RightHandRing2
									{
										OFFSET -3.053307 0.000000 0.000000
										CHANNELS 3 Xrotation Yrotation Zrotation
										JOINT RightHandRing3
										{
											OFFSET -3.295807 0.000000 0.000000
											CHANNELS 3 Xrotation Yrotation Zrotation
											End Site
											{
												OFFSET 1.281006 3.013344 0.375733
											}
										}
									}
								}
								JOINT RightHandPinky1
								{
									OFFSET -10.518692 -0.960396 -5.730441
									CHANNELS 3 Xrotation Yrotation Zrotation
									JOINT RightHandPinky2
									{
										OFFSET -2.861649 0.000000 0.000000
										CHANNELS 3 Xrotation Yrotation Zrotation
										JOINT RightHandPinky3
										{
											OFFSET -2.863380 0.000000 0.000000
											CHANNELS 3 Xrotation Yrotation Zrotation
											End Site
											{
												OFFSET 0.843597 2.711159 0.369971
											}
										}
									}
								}
							}
							JOINT RSleeve
							{
								OFFSET -6.676277 -0.344902 -1.011730
								CHANNELS 3 Xrotation Yrotation Zrotation
								End Site
								{
									OFFSET 0.000000 14.885353 0.000000
								}
							}
						}
					}
				}
				JOINT Backpack
				{
					OFFSET 0.000000 -2.471497 36.677502
					CHANNELS 3 Xrotation Yrotation Zrotation
					End Site
					{
						OFFSET 0.000000 20.427315 0.000000
					}
				}
				JOINT Hood
				{
					OFFSET 0.000000 18.754097 -10.431000
					CHANNELS 3 Xrotation Yrotation Zrotation
					JOINT Hood1
					{
						OFFSET 0.000000 -5.011002 -7.685901
						CHANNELS 3 Xrotation Yrotation Zrotation
						End Site
						{
							OFFSET 0.000000 9.175140 0.000000
						}
					}
				}
				JOINT LHoodieString
				{
					OFFSET 5.250500 16.397697 3.089900
					CHANNELS 3 Xrotation Yrotation Zrotation
					JOINT LHoodieString1
					{
						OFFSET 0.257700 -6.364304 3.694600
						CHANNELS 3 Xrotation Yrotation Zrotation
						JOINT LHoodieString2
						{
							OFFSET 0.000000 -9.643799 2.679100
							CHANNELS 3 Xrotation Yrotation Zrotation
							End Site
							{
								OFFSET 0.000000 10.009018 0.000000
							}
						}
					}
				}
				JOINT RHoodieString
				{
					OFFSET -5.250500 16.397697 3.089900
					CHANNELS 3 Xrotation Yrotation Zrotation
					JOINT RHoodieString1
					{
						OFFSET -0.257700 -6.364304 3.694600
						CHANNELS 3 Xrotation Yrotation Zrotation
						JOINT RHoodieString2
						{
							OFFSET 0.000000 -9.643799 2.679100
							CHANNELS 3 Xrotation Yrotation Zrotation
							End Site
							{
								OFFSET 0.000000 10.009018 0.000000
							}
						}
					}
				}
			}
			JOINT LBackpack_Strap
			{
				OFFSET 15.223200 -7.719803 -6.610900
				CHANNELS 3 Xrotation Yrotation Zrotation
				End Site
				{
					OFFSET 0.000000 16.040596 0.000000
				}
			}
			JOINT RBackpack_Strap
			{
				OFFSET -15.223000 -7.719803 -6.610900
				CHANNELS 3 Xrotation Yrotation Zrotation
				End Site
				{
					OFFSET 0.000000 16.040596 0.000000
				}
			}
		}
	}
	JOINT BoyFacialAnim_Joint
	{
		OFFSET 1.000000 -82.208099 -1.550900
		CHANNELS 3 Xrotation Yrotation Zrotation
		End Site
		{
			OFFSET 0.000000 30.012791 0.000000
		}
	}
}
MOTION
Frames: 4
Frame Time: 0.033333
-0.259413 81.116234 0.083289 -7.158082 -1.476250 3.287430 -0.000000 0.000000 0.000000 -9.143019 11.660274 5.403459 11.027710 7.590488 1.486653 6.377950 0.065732 -5.980721 -0.000000 0.000002 -0.000000 -0.000000 0.000002 -0.000000 0.000000 -0.000000 0.000001 1.979073 -15.520283 -5.933011 21.194775 -9.480416 -3.675412 -16.111433 -5.394495 7.519894 0.000000 -0.000002 0.000000 0.000000 -0.000002 0.000000 -0.000000 0.000001 -0.000000 5.346855 2.073954 -2.038839 1.494085 0.738294 -0.705217 1.487195 0.744495 -0.669459 2.294855 5.359488 1.626795 3.290177 -10.639558 2.511530 -0.000000 -0.000000 0.000000 -0.000000 -0.000000 0.000000 -0.000000 -0.000000 0.000000 -0.595444 -16.332000 -20.041827 11.025736 0.135644 -33.905141 0.002445 -88.793463 0.002405 -131.311835 -7.198053 10.439555 -12.800119 -17.470125 4.121649 1.000133 0.731303 -1.438324 -0.000001 -0.000001 0.000000 -3.532549 4.254376 -63.954565 3.402099 5.315526 -65.218949 0.000000 0.000001 -0.000005 2.434394 7.296055 -69.364075 3.297850 5.266364 -64.088655 -0.000000 -0.000000 0.000000 4.717040 8.075507 -77.582261 2.056278 4.456884 -49.517673 -0.000002 0.000000 -0.000000 6.410343 8.363715 -80.414556 1.722712 4.149892 -45.074416 -0.000000 0.000000 -0.000000 0.000000 -0.000000 0.000002 0.765836 18.439431 11.541324 10.693822 23.558588 38.361887 -0.001087 97.831497 0.001103 -34.546865 -20.180661 22.179154 20.470558 7.475582 18.843584 4.151727 -12.160907 -33.847989 -0.000001 0.000003 0.000003 -0.887088 1.427988 12.684528 1.917409 -3.767473 53.934329 -0.000001 0.000001 0.000000 0.770899 -5.199601 54.618830 5.563864 -4.568233 101.238573 -0.000001 0.000001 -0.000000 6.934470 -8.544275 63.908762 2.909307 -4.317402 67.934728 0.000001 0.000001 0.000002 8.373411 -8.171741 73.989937 2.173676 -3.940984 57.745404 0.000001 -0.000002 0.000002 -0.000003 0.000001 -0.000002 0.000000 0.000000 -0.000000 0.000000 0.000000 -0.000000 0.000000 0.000000 -0.000000 0.000000 0.000000 -0.000000 0.000000 0.000000 -0.000000 -0.000000 0.000000 0.000000 0.000000 0.000000 -0.000000 0.000000 0.000000 -0.000000 -0.000000 0.000000 0.000000 -0.000000 0.000000 0.000000 -0.000000 0.000000 0.000000 -0.000000 0.000000 0.000000 
-0.178300 81.149246 0.416894 -7.066472 -1.614965 3.311566 -0.000000 -0.000000 0.000000 -8.984354 11.672155 5.354444 11.227859 7.752605 1.429863 5.961362 0.061914 -6.008893 0.000000 0.000000 -0.000000 0.000000 0.000000 -0.000000 0.000000 0.000002 -0.000000 2.425481 -15.560609 -5.956973 20.581541 -9.335859 -3.754031 -16.008737 -5.401419 7.673653 0.000000 -0.000000 0.000000 0.000000 -0.000000 0.000000 0.000002 0.000001 -0.000001 5.347603 2.221048 -2.119710 1.494086 0.780271 -0.731731 1.487195 0.786307 -0.696874 2.294854 5.340736 1.626796 3.396726 -10.726162 2.530373 -0.000000 -0.000000 0.000000 -0.000000 -0.000000 0.000000 -0.000000 -0.000000 0.000000 -0.579204 -16.270144 -19.980436 10.836143 -0.169297 -34.024208 0.001423 -88.190494 0.001286 -131.317518 -6.796676 10.481645 -12.800121 -17.470123 4.121646 1.000134 0.731300 -1.438323 0.000000 0.000001 -0.000003 -3.532549 4.254375 -63.954572 3.402099 5.315527 -65.218942 -0.000001 0.000001 -0.000002 2.434394 7.296056 -69.364082 3.297850 5.266364 -64.088649 0.000001 0.000000 0.000000 4.717038 8.075506 -77.582275 2.056277 4.456883 -49.517666 -0.000001 0.000000 -0.000002 6.410342 8.363712 -80.414556 1.722714 4.149892 -45.074416 0.000001 0.000000 -0.000002 -0.000001 -0.000001 0.000000 0.768491 18.362656 11.580473 10.535135 23.654103 38.630068 -0.000131 97.501756 0.000131 -34.454893 -20.309105 22.240226 20.470560 7.475581 18.843584 4.151733 -12.160907 -33.847986 -0.000000 -0.000000 -0.000002 -0.887087 1.427983 12.684526 1.917407 -3.767473 53.934326 0.000001 -0.000000 0.000004 0.770900 -5.199601 54.618830 5.563864 -4.568234 101.238580 -0.000000 -0.000001 0.000001 6.934471 -8.544276 63.908762 2.909302 -4.317405 67.934735 -0.000000 -0.000001 0.000004 8.373412 -8.171741 73.989937 2.173678 -3.940984 57.745404 -0.000000 -0.000001 -0.000002 -0.000004 -0.000000 -0.000001 0.000000 -0.000000 -0.000000 0.000000 -0.000000 -0.000000 0.000000 -0.000000 -0.000000 0.000000 -0.000000 -0.000000 0.000000 -0.000000 0.000000 -0.000000 -0.000000 -0.000000 0.000000 -0.000000 -0.000000 0.000000 -0.000000 0.000000 -0.000000 -0.000000 -0.000000 -0.000000 -0.000000 0.000000 -0.000000 -0.000000 0.000000 -0.000000 -0.000000 0.000000 
-0.063841 81.194672 0.781273 -6.924664 -1.809455 3.306230 -0.000000 0.000000 -0.000000 -8.820739 11.684290 5.305774 11.392457 7.959137 1.372788 5.525372 0.076793 -6.027129 0.000000 -0.000000 -0.000000 0.000000 -0.000000 -0.000000 -0.000000 0.000000 -0.000000 2.917470 -15.606304 -5.962222 19.797063 -9.130750 -3.851270 -15.820272 -5.411048 7.848044 0.000000 -0.000000 -0.000000 0.000000 -0.000000 -0.000000 -0.000001 -0.000003 -0.000001 5.317275 2.361428 -2.149945 1.494086 0.819452 -0.753823 1.487195 0.825802 -0.718846 2.294853 5.328579 1.624027 3.480253 -10.771477 2.497611 -0.000001 0.000000 -0.000000 -0.000001 0.000000 -0.000000 -0.000001 0.000000 -0.000000 -0.560382 -16.160672 -19.946680 10.564712 -0.550170 -34.146875 0.000207 -87.525712 0.000289 -131.280170 -6.371530 10.507134 -12.800119 -17.470123 4.121649 1.000137 0.731302 -1.438317 0.000000 -0.000001 0.000002 -3.532549 4.254378 -63.954565 3.402099 5.315526 -65.218942 -0.000000 -0.000000 -0.000002 2.434394 7.296055 -69.364068 3.297849 5.266365 -64.088649 0.000000 -0.000001 0.000000 4.717040 8.075507 -77.582268 2.056278 4.456885 -49.517673 -0.000002 -0.000000 0.000001 6.410343 8.363714 -80.414556 1.722711 4.149893 -45.074416 -0.000000 0.000001 0.000002 0.000001 -0.000000 0.000001 0.769632 18.288175 11.623386 10.333981 23.734105 38.885063 -0.000336 97.148376 0.000384 -34.317886 -20.419846 22.347107 20.470557 7.475580 18.843585 4.151733 -12.160903 -33.847986 -0.000001 0.000001 -0.000002 -0.887088 1.427983 12.684528 1.917407 -3.767473 53.934329 0.000001 -0.000000 0.000004 0.770898 -5.199603 54.618830 5.563866 -4.568233 101.238587 -0.000000 0.000001 -0.000000 6.934470 -8.544276 63.908762 2.909305 -4.317401 67.934728 0.000002 -0.000001 0.000004 8.373408 -8.171740 73.989937 2.173680 -3.940983 57.745404 0.000002 -0.000001 0.000000 -0.000002 -0.000000 -0.000002 -0.000000 0.000000 0.000000 -0.000000 0.000000 0.000000 -0.000000 0.000000 0.000000 -0.000000 0.000000 0.000000 -0.000000 0.000000 0.000000 -0.000000 0.000000 0.000000 -0.000000 0.000000 0.000000 -0.000000 0.000000 0.000000 -0.000000 0.000000 0.000000 -0.000000 0.000000 -0.000000 -0.000000 0.000000 -0.000000 -0.000000 0.000000 -0.000000 
0.081495 81.239235 1.170317 -6.783368 -2.023014 3.300769 -0.000001 0.000000 0.000000 -8.653554 11.701505 5.233735 11.610619 8.174056 1.317263 5.032609 0.106315 -6.035572 0.000000 -0.000000 -0.000000 0.000000 -0.000000 -0.000000 0.000001 0.000001 -0.000000 3.452232 -15.649140 -5.984587 18.945446 -8.910145 -3.964065 -15.599899 -5.422539 8.059062 -0.000000 -0.000000 -0.000000 -0.000000 -0.000000 -0.000000 0.000000 0.000000 -0.000001 5.311367 2.496753 -2.163656 1.494085 0.857488 -0.770712 1.487195 0.864023 -0.735961 2.291787 5.315140 1.620753 3.457980 -10.830126 2.469517 -0.000000 -0.000000 0.000000 -0.000000 -0.000000 0.000000 -0.000000 -0.000000 0.000000 -0.545411 -16.099311 -19.895147 10.259520 -0.922966 -34.305411 0.001196 -86.830460 0.001161 -131.237700 -5.959056 10.476477 -12.800119 -17.470123 4.121647 1.000134 0.731303 -1.438321 -0.000001 -0.000000 0.000002 -3.532548 4.254379 -63.954572 3.402098 5.315527 -65.218942 -0.000001 0.000001 -0.000000 2.434396 7.296057 -69.364082 3.297851 5.266363 -64.088649 -0.000001 -0.000001 0.000000 4.717041 8.075508 -77.582268 2.056276 4.456884 -49.517666 0.000001 0.000001 -0.000002 6.410344 8.363715 -80.414556 1.722713 4.149891 -45.074413 0.000000 0.000000 -0.000000 -0.000000 -0.000000 0.000001 0.770369 18.215805 11.669483 10.095500 23.799260 39.128316 -0.001037 96.775318 0.001028 -34.142756 -20.514550 22.492163 20.470557 7.475582 18.843585 4.151729 -12.160908 -33.847989 -0.000001 0.000001 -0.000003 -0.887086 1.427984 12.684527 1.917407 -3.767473 53.934329 -0.000001 0.000000 0.000002 0.770899 -5.199601 54.618823 5.563867 -4.568235 101.238573 0.000000 0.000000 -0.000000 6.934472 -8.544277 63.908762 2.909305 -4.317404 67.934728 -0.000002 -0.000000 0.000002 8.373410 -8.171740 73.989937 2.173673 -3.940984 57.745404 -0.000004 -0.000001 0.000002 -0.000001 0.000001 0.000001 0.000000 -0.000000 -0.000000 0.000000 -0.000000 -0.000000 0.000000 -0.000000 -0.000000 0.000000 -0.000000 -0.000000 0.000000 -0.000000 -0.000000 0.000000 -0.000000 -0.000000 0.000000 -0.000000 -0.000000 0.000000 -0.000000 -0.000000 0.000000 -0.000000 -0.000000 -0.000000 0.000000 -0.000000 -0.000000 0.000000 -0.000000 -0.000001 0.000000 0.000000 
